<?xml version="1.0" standalone="no"?>
<!DOCTYPE svg PUBLIC "-//W3C//DTD SVG 20010904//EN"
 "http://www.w3.org/TR/2001/REC-SVG-20010904/DTD/svg10.dtd">
<svg version="1.0" xmlns="http://www.w3.org/2000/svg"
 width="1536.000000pt" height="1536.000000pt" viewBox="0 0 1536.000000 1536.000000"
 preserveAspectRatio="xMidYMid meet">
<metadata>
Created by potrace 1.10, written by Peter Selinger 2001-2011
</metadata>
<g transform="translate(0.000000,1536.000000) scale(0.100000,-0.100000)"
fill="#3ecf8e" stroke="none">
<path d="M6870 14930 c-14 -4 -81 -9 -150 -10 -69 -1 -152 -6 -185 -11 -33 -5
-107 -11 -165 -14 -58 -3 -127 -10 -155 -16 -27 -5 -106 -14 -175 -19 -69 -5
-159 -14 -200 -20 -146 -21 -306 -39 -390 -45 -47 -3 -146 -15 -220 -25 -74
-11 -187 -24 -250 -30 -63 -5 -131 -14 -150 -20 -19 -5 -75 -10 -125 -10 -49
0 -110 -5 -135 -11 -25 -6 -76 -15 -115 -20 -125 -16 -219 -29 -275 -40 -30
-6 -77 -15 -105 -19 -60 -9 -115 -31 -133 -53 -10 -12 -14 -57 -14 -171 0
-148 -1 -156 -22 -169 -33 -22 -111 -52 -216 -82 -52 -15 -115 -34 -140 -42
-112 -35 -182 -53 -208 -53 -15 0 -33 -5 -39 -11 -6 -6 -26 -14 -44 -19 -19
-5 -59 -18 -89 -30 -30 -12 -73 -26 -95 -30 -23 -5 -72 -20 -109 -34 -38 -14
-76 -26 -85 -26 -9 0 -27 -6 -41 -13 -14 -8 -62 -22 -105 -32 -44 -10 -89 -24
-100 -32 -11 -7 -29 -13 -41 -13 -12 0 -35 -7 -50 -15 -16 -8 -37 -15 -46 -15
-9 0 -19 -4 -22 -9 -3 -5 -21 -12 -40 -15 -51 -10 -68 -43 -64 -124 4 -65 16
-108 44 -164 8 -14 14 -33 14 -41 0 -8 12 -36 27 -63 16 -27 33 -62 39 -79 6
-16 26 -68 44 -115 18 -47 34 -97 37 -112 3 -15 11 -33 19 -39 8 -6 14 -22 14
-34 0 -13 6 -36 14 -52 8 -15 22 -46 32 -68 9 -22 23 -52 31 -67 7 -14 13 -35
13 -45 0 -10 4 -23 9 -29 4 -5 21 -45 36 -89 16 -44 32 -84 37 -89 4 -6 8 -18
8 -28 0 -9 6 -32 14 -50 8 -18 22 -53 31 -78 9 -25 23 -58 31 -75 8 -16 17
-51 20 -76 7 -54 -1 -62 -76 -74 -25 -4 -83 -18 -130 -32 -47 -14 -95 -28
-107 -30 -12 -3 -28 -11 -34 -19 -6 -8 -21 -14 -34 -14 -12 0 -40 -13 -61 -28
-21 -16 -46 -31 -54 -34 -8 -3 -50 -36 -92 -72 -85 -72 -142 -144 -179 -221
-13 -27 -28 -57 -35 -65 -6 -8 -14 -24 -17 -35 -3 -11 -15 -45 -27 -75 -12
-30 -26 -93 -31 -140 -5 -47 -13 -118 -18 -159 -5 -45 -5 -113 0 -175 11 -123
29 -865 21 -886 -8 -22 -45 -60 -59 -60 -18 0 -84 -84 -100 -127 -34 -89 -35
-200 -8 -813 6 -139 7 -137 -61 -183 -23 -15 -57 -42 -75 -59 -19 -16 -59 -49
-89 -71 -30 -23 -77 -64 -105 -92 -74 -75 -195 -206 -195 -211 0 -2 -20 -30
-45 -63 -25 -32 -45 -62 -45 -66 0 -4 -13 -24 -30 -45 -16 -21 -30 -40 -30
-43 0 -3 -13 -26 -30 -50 -16 -25 -30 -52 -30 -60 0 -8 -7 -17 -15 -21 -8 -3
-15 -14 -15 -24 0 -11 -7 -25 -15 -32 -8 -7 -15 -20 -15 -29 0 -10 -7 -26 -15
-37 -8 -10 -15 -28 -15 -39 0 -11 -13 -47 -29 -81 -16 -34 -32 -76 -36 -95 -4
-19 -11 -38 -15 -44 -13 -18 -40 -143 -40 -185 0 -22 -7 -57 -15 -77 -8 -19
-15 -52 -15 -73 0 -50 -30 -86 -100 -119 -138 -66 -269 -181 -352 -310 -17
-27 -75 -143 -109 -221 -11 -25 -24 -53 -30 -62 -5 -10 -9 -44 -9 -75 -1 -32
-7 -69 -15 -83 -19 -33 -19 -167 0 -200 8 -14 14 -46 15 -73 0 -26 4 -55 9
-65 5 -9 28 -56 52 -103 23 -48 64 -116 90 -151 43 -59 57 -70 141 -112 51
-25 105 -46 120 -46 18 0 52 -20 101 -60 41 -33 83 -60 93 -60 11 0 37 -7 59
-15 46 -16 141 -19 200 -5 36 8 46 5 111 -31 67 -36 77 -39 153 -39 52 0 96 6
123 17 53 21 149 92 173 130 44 65 85 154 85 181 0 34 38 108 72 139 32 30 48
51 48 61 0 5 7 15 15 22 8 7 15 20 15 29 0 9 7 29 15 44 26 51 40 243 26 373
-7 63 -19 127 -27 142 -7 15 -14 32 -14 37 0 29 -78 160 -206 349 -28 40 -85
91 -155 139 -67 44 -84 73 -74 119 3 18 9 60 11 93 3 33 12 74 20 92 8 17 14
39 14 50 0 10 11 42 25 71 13 29 29 71 35 93 6 22 36 80 66 130 29 49 54 92
54 95 0 4 14 23 30 44 17 21 30 41 30 45 0 14 113 136 134 146 12 6 32 16 46
24 31 18 94 19 108 3 17 -22 23 -97 32 -419 15 -508 30 -812 41 -844 6 -16 15
-48 19 -70 11 -52 33 -112 48 -127 7 -7 12 -21 12 -31 0 -11 14 -39 30 -64 17
-24 30 -46 30 -49 0 -24 153 -194 227 -251 115 -91 282 -171 393 -188 24 -4
51 -11 60 -16 27 -15 140 -39 183 -39 43 0 120 -21 169 -46 14 -8 33 -14 41
-14 8 0 20 -7 27 -15 7 -8 23 -15 37 -15 13 0 70 -14 126 -32 l102 -31 375 -4
c206 -1 382 -3 390 -3 22 0 67 -87 84 -160 8 -35 20 -68 25 -73 6 -6 11 -23
11 -37 0 -14 7 -35 15 -46 8 -10 15 -37 15 -60 0 -22 5 -45 12 -52 7 -7 16
-38 20 -70 8 -69 30 -162 41 -180 5 -7 12 -47 17 -90 13 -113 29 -248 40 -324
6 -37 10 -206 10 -376 0 -262 -3 -330 -21 -453 -12 -79 -25 -169 -28 -199 -7
-55 -21 -106 -47 -168 -8 -18 -14 -47 -14 -65 0 -18 -7 -42 -15 -53 -8 -10
-15 -28 -15 -40 0 -11 -11 -41 -25 -65 -13 -24 -31 -57 -40 -74 -8 -16 -41
-62 -73 -101 -31 -39 -73 -91 -92 -115 -47 -58 -105 -155 -118 -199 -36 -115
-42 -145 -42 -205 0 -66 18 -151 46 -212 8 -17 14 -35 14 -40 0 -32 131 -189
190 -229 19 -13 54 -37 78 -54 23 -16 49 -30 56 -30 8 0 19 -7 26 -15 7 -8 22
-15 34 -15 12 0 27 -5 32 -10 11 -11 145 -51 239 -71 41 -9 150 -13 340 -14
l280 0 102 33 c56 19 107 40 114 48 6 8 20 14 30 14 18 0 169 134 169 151 0 4
15 34 34 66 85 147 67 311 -57 517 -21 35 -25 40 -67 88 -70 79 -258 205 -372
248 -18 7 -60 16 -93 21 -157 19 -259 39 -266 51 -14 21 -10 46 15 111 23 58
34 100 57 224 5 29 14 64 19 78 6 15 10 46 10 70 0 25 6 64 14 87 14 42 16 64
36 273 23 252 2 805 -36 941 -8 28 -14 80 -14 116 0 36 -7 85 -15 108 -8 23
-15 57 -15 76 0 18 -4 35 -9 38 -4 3 -11 34 -15 69 -3 35 -17 98 -31 140 -14
42 -32 110 -41 149 -8 40 -19 91 -24 113 -18 78 -14 93 28 104 56 14 229 22
732 31 252 5 473 13 495 19 22 6 148 11 285 11 l245 0 35 -33 c19 -18 60 -61
90 -96 30 -35 62 -71 71 -80 22 -22 169 -219 169 -226 0 -4 19 -32 43 -63 23
-31 48 -68 55 -82 6 -14 25 -47 42 -75 16 -27 33 -57 36 -65 4 -8 30 -64 59
-125 29 -60 69 -146 88 -190 32 -74 42 -105 84 -255 9 -30 20 -66 26 -80 6
-14 14 -45 18 -70 4 -25 15 -74 24 -110 53 -213 73 -365 81 -610 7 -198 -4
-296 -47 -445 -56 -193 -68 -280 -62 -445 3 -93 22 -168 50 -201 7 -8 13 -19
13 -23 0 -13 97 -131 134 -163 109 -96 390 -151 581 -114 162 31 281 70 375
120 8 5 29 16 46 24 77 40 267 183 313 235 72 82 151 185 151 198 0 6 7 17 15
24 8 7 15 20 15 30 0 10 7 23 15 30 9 8 15 29 15 56 0 23 5 46 10 49 13 8 13
242 0 250 -5 3 -10 21 -10 40 0 28 -23 88 -40 105 -3 3 -18 25 -35 49 -55 82
-140 155 -235 204 -86 45 -97 48 -222 61 -166 17 -295 2 -396 -47 -51 -25 -68
-29 -90 -21 -23 8 -28 18 -39 74 -6 36 -15 112 -19 170 -3 58 -13 120 -20 139
-8 18 -14 62 -14 96 0 63 -27 192 -49 232 -6 12 -11 31 -11 43 0 12 -11 54
-24 93 -14 40 -28 90 -32 112 -4 22 -20 69 -36 103 -15 35 -28 74 -28 87 0 12
-7 28 -15 35 -8 7 -15 22 -15 33 0 23 -37 104 -51 113 -5 3 -9 13 -9 22 -1 9
-19 51 -40 92 -22 41 -58 111 -80 155 -23 44 -50 94 -60 110 -11 17 -24 40
-29 52 -5 11 -14 24 -20 27 -12 8 -71 94 -71 104 0 4 -14 23 -31 41 -17 19
-42 51 -55 73 -13 21 -37 50 -53 64 -16 14 -35 39 -42 56 -11 26 -10 32 10 51
21 22 28 22 334 24 351 3 448 11 632 57 72 18 207 67 226 82 8 6 34 21 59 33
25 13 55 28 67 35 34 19 213 184 288 266 7 8 32 47 55 85 24 39 47 76 53 84
16 19 77 162 77 179 0 7 6 26 14 40 46 91 46 97 46 715 0 662 -5 621 76 599
30 -8 146 -12 353 -12 252 0 321 3 373 16 35 9 71 20 80 25 10 5 37 13 60 18
57 12 178 55 253 90 133 63 152 73 200 107 173 121 328 290 418 454 17 30 41
69 54 86 13 17 23 36 23 43 0 6 13 36 29 66 16 30 32 68 36 85 4 16 11 32 16
35 5 4 9 15 9 26 0 12 16 73 35 136 19 64 35 124 35 134 0 23 62 89 84 89 9 0
44 13 78 29 35 16 70 31 78 35 8 3 29 15 45 26 17 11 37 23 45 27 47 22 216
221 251 295 11 24 38 76 60 117 21 40 39 80 39 88 0 8 6 29 14 46 44 103 59
157 90 327 23 122 39 193 78 335 11 39 23 86 27 105 8 31 21 68 51 135 4 11
22 79 39 150 18 72 38 156 46 187 22 87 20 231 -6 303 -11 33 -25 64 -30 69
-5 6 -9 16 -9 23 0 41 -105 127 -191 157 -26 10 -79 16 -131 16 l-86 0 -10 43
c-25 108 -55 169 -113 228 -72 74 -111 89 -225 89 -90 0 -101 -2 -153 -31 -72
-40 -143 -109 -187 -181 -42 -69 -62 -73 -126 -28 -78 54 -223 64 -313 20
-108 -53 -215 -201 -215 -297 0 -18 -5 -44 -11 -60 -6 -15 -14 -62 -19 -103
-14 -115 -39 -307 -50 -385 -5 -38 -9 -75 -10 -81 0 -5 -6 -18 -13 -28 -11
-15 -16 -16 -42 -4 -17 7 -48 25 -69 40 -21 16 -43 28 -48 28 -6 0 -40 14 -76
31 -62 29 -74 31 -177 31 -107 0 -112 -1 -183 -37 -40 -20 -87 -52 -105 -70
-45 -46 -71 -128 -71 -225 0 -76 3 -87 49 -195 7 -17 53 -74 101 -127 99 -106
134 -149 149 -183 6 -12 15 -28 20 -36 14 -18 31 -73 40 -123 4 -22 13 -49 21
-60 8 -11 14 -27 14 -36 0 -8 7 -28 15 -44 8 -15 15 -35 15 -44 0 -17 29 -78
61 -127 10 -16 22 -37 26 -45 8 -19 46 -65 125 -153 60 -67 135 -130 211 -176
l38 -23 -7 -87 c-4 -47 -10 -93 -14 -101 -5 -9 -18 -45 -30 -80 -18 -57 -39
-108 -59 -147 -20 -37 -108 -161 -135 -187 -90 -91 -224 -168 -336 -193 -98
-22 -341 -23 -465 -1 -92 15 -192 44 -209 59 -6 5 -18 9 -27 9 -47 0 -56 64
-69 473 -6 172 -17 449 -25 617 -7 168 -18 413 -24 545 -6 132 -16 287 -22
345 -6 58 -15 143 -20 190 -5 47 -13 105 -18 130 -6 25 -10 63 -11 85 0 22 -7
49 -15 59 -8 11 -15 25 -15 32 0 7 -13 42 -30 77 -16 36 -30 68 -30 71 0 8
-99 141 -166 223 -28 35 -69 76 -92 93 -167 121 -271 180 -317 180 -15 0 -39
6 -53 14 -35 18 -123 36 -228 46 -47 4 -88 11 -92 14 -13 14 -4 100 18 181 13
44 26 99 31 122 4 23 13 50 18 60 20 37 41 123 41 167 0 24 6 57 14 73 14 29
51 168 69 258 12 65 35 151 52 195 8 19 17 52 20 74 4 21 10 46 15 55 11 24
31 99 39 156 4 28 12 61 18 75 22 52 37 107 44 155 3 28 18 94 33 148 14 53
26 110 26 125 0 65 -66 113 -173 126 -32 4 -90 17 -130 28 -40 11 -97 26 -127
33 -30 8 -82 21 -115 30 -33 10 -85 20 -115 24 -30 4 -64 12 -75 18 -29 15
-111 35 -180 43 -33 4 -73 12 -88 18 -16 7 -43 12 -60 12 -58 0 -338 75 -348
93 -5 9 -15 67 -21 129 -13 127 -26 154 -86 175 -40 14 -162 16 -202 3z m80
-226 c6 -14 10 -55 10 -92 0 -37 5 -107 11 -157 12 -106 23 -257 43 -600 16
-277 31 -491 46 -635 6 -52 14 -210 20 -350 6 -140 15 -306 20 -368 5 -62 7
-119 3 -128 -10 -26 -49 -34 -158 -34 -89 0 -106 3 -114 18 -5 9 -11 107 -14
217 -3 110 -10 269 -16 354 -6 84 -11 190 -11 235 -1 44 -6 122 -11 171 -5 50
-14 198 -20 330 -6 132 -14 272 -17 310 l-7 70 -85 6 c-90 6 -148 26 -210 73
-36 28 -118 146 -125 181 -2 11 -7 38 -10 59 l-6 39 -92 -7 c-176 -14 -283
-25 -402 -40 -66 -9 -178 -20 -250 -26 -135 -10 -320 -33 -415 -51 -30 -6 -91
-15 -135 -19 -113 -13 -177 -21 -200 -25 -17 -3 -20 -13 -21 -52 -2 -65 -18
-142 -36 -176 -34 -61 -106 -132 -155 -151 -26 -10 -55 -25 -63 -31 -8 -7 -25
-16 -37 -19 -30 -10 -33 -25 -22 -113 5 -43 14 -123 19 -178 6 -55 17 -140 25
-190 20 -128 35 -245 46 -360 26 -271 48 -455 69 -576 21 -118 10 -129 -132
-129 -90 0 -99 2 -112 23 -13 20 -35 181 -56 412 -15 164 -30 279 -45 352 -8
40 -15 86 -15 102 0 16 -5 42 -11 58 -6 15 -19 118 -30 228 -10 110 -23 241
-29 290 -6 50 -15 149 -20 220 -6 72 -14 148 -20 170 -5 22 -12 99 -15 170 -7
161 -6 163 90 170 39 3 99 10 135 16 36 5 108 14 160 19 112 10 315 37 350 46
31 8 128 20 330 38 85 9 220 24 300 36 80 11 204 25 275 30 72 6 149 15 172
20 23 6 109 10 191 10 82 0 173 4 203 9 30 6 122 15 206 21 84 6 165 15 180
20 15 5 67 9 116 9 85 1 88 0 97 -25z m364 -320 c39 -8 112 -27 161 -40 50
-14 124 -32 165 -39 41 -8 104 -21 140 -30 36 -9 86 -20 112 -25 26 -5 56 -13
67 -19 11 -6 35 -11 53 -11 18 -1 80 -12 138 -26 58 -14 121 -28 140 -33 19
-4 50 -15 69 -25 29 -16 32 -21 28 -49 -8 -52 -27 -120 -37 -132 -4 -5 -11
-28 -15 -50 -4 -22 -18 -77 -31 -121 -13 -45 -24 -90 -24 -99 0 -9 -6 -31 -14
-48 -18 -45 -38 -122 -47 -192 -4 -33 -17 -91 -29 -130 -39 -128 -60 -210 -60
-231 0 -12 -12 -57 -26 -100 -23 -71 -46 -156 -60 -224 -29 -141 -40 -186 -60
-255 -12 -44 -25 -95 -29 -113 -9 -44 -33 -52 -154 -52 -126 0 -141 9 -123 74
6 26 12 57 12 70 0 13 7 40 15 59 8 20 15 46 15 58 0 11 6 35 14 52 20 46 36
94 51 157 35 144 55 219 73 275 15 43 32 122 32 145 0 10 14 59 31 107 57 165
59 196 13 207 -14 4 -43 18 -65 31 -21 14 -42 25 -46 25 -5 0 -32 26 -61 57
-68 75 -85 129 -81 261 3 90 2 97 -16 100 -11 2 -38 9 -60 17 -22 7 -62 16
-90 18 -69 7 -148 24 -228 49 -52 16 -68 26 -72 42 -9 45 -11 225 -3 240 11
20 13 20 102 0z m-3364 -376 c1 -2 7 -39 15 -83 8 -44 15 -105 15 -136 l0 -56
-62 -21 c-35 -11 -97 -28 -138 -37 -41 -10 -106 -29 -145 -42 -38 -14 -90 -29
-115 -33 -55 -10 -144 -35 -161 -46 -7 -4 -29 -10 -49 -14 l-35 -5 -6 -130
c-8 -161 -18 -186 -115 -283 -41 -41 -74 -83 -74 -93 0 -11 16 -51 35 -90 19
-39 42 -94 50 -122 8 -29 28 -83 44 -122 16 -38 37 -97 46 -130 10 -33 24 -73
33 -90 8 -16 19 -38 23 -47 5 -10 18 -46 30 -80 12 -35 26 -68 31 -75 5 -6 8
-27 6 -45 -3 -32 -5 -33 -84 -54 -44 -12 -90 -26 -101 -33 -49 -26 -93 1 -93
55 0 19 -11 57 -25 86 -24 53 -51 125 -62 163 -5 19 -19 54 -48 120 -35 82
-45 107 -45 119 0 18 -69 198 -81 210 -5 6 -9 20 -9 32 0 21 -16 67 -45 129
-8 17 -28 68 -46 115 -18 47 -42 108 -54 135 -12 28 -32 84 -45 125 -12 41
-29 87 -36 102 -17 33 -18 78 -1 82 27 7 226 76 291 100 38 14 79 26 90 26 12
0 57 14 99 30 43 17 88 30 101 30 12 0 31 7 42 15 10 8 35 15 54 15 31 0 89
17 145 41 36 16 119 41 190 59 91 23 207 61 220 72 8 7 114 12 115 6z m1866
-286 c116 -52 221 -154 256 -247 12 -33 29 -71 37 -84 22 -34 21 -232 -1 -281
-8 -19 -25 -59 -38 -88 -29 -65 -139 -174 -204 -202 -60 -25 -161 -53 -206
-55 -38 -3 -171 36 -235 68 -21 11 -64 44 -95 73 -120 114 -193 346 -145 461
8 19 15 46 15 59 0 12 4 25 9 29 6 3 21 29 35 58 36 77 124 155 236 208 52 25
282 26 336 1z m5890 -1289 c67 -32 96 -133 74 -258 -20 -120 -27 -148 -50
-205 -12 -30 -25 -77 -29 -105 -4 -27 -10 -55 -14 -62 -4 -6 -11 -31 -16 -55
-5 -24 -21 -73 -34 -110 -13 -36 -28 -83 -31 -105 -4 -21 -18 -70 -32 -110
-13 -39 -24 -83 -24 -97 0 -14 -13 -40 -29 -58 -24 -27 -32 -31 -42 -20 -7 6
-27 12 -44 12 -38 0 -155 37 -174 56 -12 11 -12 25 1 101 9 48 23 120 33 158
40 165 47 204 55 285 8 94 34 234 49 271 5 13 17 51 26 84 34 121 68 179 130
216 38 24 103 24 151 2z m-647 -204 c50 -21 76 -48 105 -111 21 -43 18 -129
-9 -248 -9 -41 -19 -106 -21 -145 -3 -38 -9 -81 -15 -95 -8 -22 -24 -99 -48
-230 -4 -25 -15 -58 -24 -75 -39 -71 -10 -96 153 -135 19 -4 49 -13 65 -19 17
-6 79 -27 139 -46 105 -34 166 -62 166 -76 0 -10 46 -20 64 -13 8 3 18 15 22
27 4 12 17 30 30 40 20 15 24 28 24 73 0 30 7 71 15 91 8 19 15 51 15 70 0 19
6 47 14 61 14 28 34 94 61 202 16 66 79 250 96 282 5 10 9 26 9 36 0 10 7 27
15 38 8 10 15 26 15 35 1 51 120 106 175 81 14 -7 34 -12 44 -12 23 0 64 -37
79 -72 19 -46 24 -120 13 -193 -15 -97 -29 -161 -39 -182 -22 -44 -52 -150
-72 -253 -4 -25 -12 -56 -18 -70 -22 -57 -71 -244 -98 -380 -3 -14 -14 -56
-26 -95 -11 -38 -24 -84 -29 -101 -5 -17 -9 -44 -9 -60 -1 -16 -7 -40 -15 -54
-8 -14 -14 -36 -15 -51 0 -14 -4 -29 -10 -35 -5 -5 -21 -40 -35 -78 -24 -63
-79 -156 -97 -164 -5 -2 -8 -9 -8 -16 0 -17 -113 -124 -194 -185 -38 -28 -87
-56 -110 -62 -23 -6 -67 -19 -98 -30 -80 -27 -261 -27 -349 0 -35 11 -80 22
-99 26 -59 11 -115 32 -176 66 -33 18 -70 38 -85 45 -44 23 -145 121 -197 191
-67 92 -146 260 -167 358 -10 44 -24 91 -31 105 -7 14 -27 57 -44 95 -24 54
-48 87 -108 145 -80 78 -132 141 -132 160 0 6 -7 22 -16 35 -32 49 3 143 66
175 85 43 212 18 324 -66 59 -43 143 -147 168 -206 39 -93 54 -113 99 -129 74
-27 82 -30 129 -52 85 -40 208 -177 244 -273 8 -22 17 -74 20 -117 3 -43 8
-83 12 -88 8 -13 68 -11 82 3 19 19 16 208 -4 260 -34 89 -67 145 -118 198
-91 96 -135 125 -240 161 -64 23 -78 50 -73 139 5 77 17 153 43 275 25 117 34
174 49 320 24 222 29 244 74 330 53 100 56 103 94 108 18 2 38 5 45 5 7 1 35
-7 61 -19z m-2779 -99 c25 -5 64 -12 87 -15 24 -4 45 -11 49 -16 3 -5 16 -9
28 -9 13 0 29 -7 36 -15 7 -8 23 -15 37 -15 85 0 315 -204 382 -340 12 -25 31
-58 41 -75 10 -16 28 -61 40 -100 11 -38 25 -77 30 -86 4 -9 11 -38 15 -65 3
-27 12 -92 20 -144 8 -53 21 -296 30 -545 8 -247 22 -526 30 -620 17 -198 33
-637 45 -1265 5 -245 13 -650 19 -900 16 -623 9 -691 -80 -888 -16 -34 -29
-64 -29 -67 0 -6 -41 -66 -50 -75 -3 -3 -27 -32 -52 -65 -108 -140 -242 -242
-428 -324 -89 -39 -145 -46 -540 -61 -146 -6 -301 -15 -345 -21 -44 -5 -195
-14 -335 -19 -140 -6 -307 -14 -370 -20 -63 -5 -185 -10 -270 -10 -192 0 -876
-27 -1025 -40 -60 -6 -263 -15 -450 -20 -187 -6 -385 -15 -440 -21 -55 -6
-314 -12 -575 -12 -467 -2 -476 -2 -551 21 -42 12 -98 34 -123 47 -26 14 -53
25 -60 25 -7 0 -42 20 -79 45 -37 25 -71 45 -75 45 -13 0 -158 153 -199 210
-65 89 -163 298 -174 371 -19 122 -29 235 -39 474 -19 430 -22 593 -10 615 10
18 20 20 124 20 168 0 153 38 160 -420 6 -437 18 -619 45 -687 56 -142 79
-178 177 -280 104 -107 151 -139 249 -172 157 -52 165 -53 441 -48 142 3 372
10 509 16 138 5 327 12 420 16 94 3 208 10 255 15 47 6 231 12 410 15 366 5
1046 30 1250 45 74 5 250 15 390 21 140 7 325 16 410 20 85 4 261 12 390 17
253 10 297 18 420 75 36 17 89 48 117 70 57 43 168 176 206 248 13 25 29 54
35 64 26 47 40 96 55 195 14 88 15 130 7 260 -6 85 -15 371 -20 635 -18 866
-30 1269 -41 1355 -6 47 -15 180 -19 295 -47 1185 -62 1401 -105 1486 -8 15
-15 41 -15 56 0 49 -75 168 -163 256 -84 86 -169 137 -277 168 -60 17 -510 24
-650 10 -58 -6 -301 -16 -540 -21 -239 -6 -491 -15 -560 -20 -69 -5 -206 -10
-305 -10 -99 0 -209 -5 -245 -10 -36 -6 -252 -12 -480 -15 -228 -3 -448 -10
-488 -15 -40 -6 -133 -10 -205 -10 -73 -1 -256 -7 -407 -16 -151 -8 -401 -19
-555 -24 -154 -5 -296 -14 -315 -19 -19 -6 -50 -11 -68 -11 -18 0 -40 -4 -50
-10 -9 -5 -28 -15 -42 -20 -14 -6 -38 -19 -55 -30 -16 -11 -36 -23 -43 -26
-28 -14 -111 -106 -156 -173 -52 -78 -76 -137 -76 -188 0 -19 -7 -48 -16 -66
-18 -34 -17 -115 6 -417 5 -69 9 -295 10 -503 0 -351 -1 -378 -17 -385 -22 -9
-239 -9 -248 0 -7 7 -10 126 -20 846 -6 450 -5 528 7 560 25 62 48 139 48 159
0 11 7 28 15 39 8 10 15 25 15 32 0 7 13 33 30 57 16 24 30 48 30 53 0 22 190
201 237 223 26 13 64 36 84 51 20 15 42 28 49 28 7 0 35 7 64 16 28 9 65 20
81 25 89 25 520 58 746 58 96 -1 204 2 240 5 35 4 352 11 704 16 352 6 685 15
740 20 55 5 196 9 314 10 117 0 277 4 355 10 209 14 766 32 1226 39 414 7 442
6 520 -9z m-5520 -206 c0 -10 -32 -49 -71 -88 -64 -65 -92 -104 -147 -206 -32
-59 -71 -190 -97 -326 -17 -94 -21 -443 -5 -589 5 -49 13 -246 16 -437 8 -397
15 -370 -84 -348 -85 18 -132 41 -147 70 -11 21 -17 135 -26 496 -7 258 -14
524 -16 592 -6 191 28 373 94 497 52 96 192 241 264 272 59 25 73 33 114 58
47 29 105 34 105 9z m5535 -189 c106 -35 219 -122 281 -217 53 -83 83 -199 93
-365 5 -73 13 -138 18 -145 6 -8 11 -116 12 -262 1 -137 6 -299 12 -360 6 -61
14 -181 18 -266 4 -85 10 -161 15 -168 4 -7 12 -140 16 -295 5 -155 14 -394
20 -532 6 -137 15 -419 21 -625 17 -578 27 -848 35 -927 5 -53 2 -96 -11 -160
-17 -81 -65 -210 -83 -223 -5 -3 -25 -33 -45 -66 -40 -67 -137 -162 -195 -191
-20 -11 -62 -26 -92 -36 -132 -39 -179 -47 -294 -47 -137 0 -568 -25 -706 -40
-52 -6 -187 -15 -300 -20 -113 -5 -257 -13 -320 -19 -113 -10 -479 -23 -1190
-41 -195 -5 -427 -13 -515 -19 -254 -16 -480 -25 -957 -36 -339 -9 -344 -8
-477 52 -71 33 -116 63 -190 128 -55 49 -71 68 -99 115 -14 25 -31 52 -38 60
-31 38 -42 126 -48 381 -4 140 -11 293 -16 340 -12 101 -13 369 -2 386 6 9 54
15 158 18 82 3 176 10 209 16 33 6 89 14 125 19 102 13 119 21 312 130 99 56
298 308 298 377 0 8 6 24 14 36 49 79 63 375 25 547 -14 61 -91 236 -112 254
-8 6 -29 31 -47 55 -49 63 -123 134 -161 153 -19 10 -52 29 -74 42 -57 36
-124 66 -146 66 -10 0 -36 6 -56 14 -70 26 -244 39 -417 32 -144 -6 -165 -4
-177 10 -10 13 -15 95 -21 368 -5 193 -12 403 -17 466 -12 174 -9 466 7 482 6
6 12 20 12 30 0 21 60 138 71 138 4 0 16 15 27 34 33 56 178 156 227 156 11 0
52 7 90 15 44 9 126 15 220 15 83 0 197 4 255 9 58 5 229 12 380 16 151 4 376
11 500 17 124 6 455 14 735 18 629 10 1123 25 1275 40 63 6 286 16 495 21 209
5 425 13 480 18 127 10 298 3 350 -14z m-6179 -1927 c23 -15 72 -42 110 -59
119 -53 215 -59 905 -58 511 0 611 -2 640 -14 19 -8 54 -23 79 -33 25 -10 52
-24 61 -31 8 -7 21 -13 27 -13 19 0 149 -133 185 -190 36 -57 65 -123 88 -200
29 -95 10 -374 -29 -424 -5 -6 -12 -23 -16 -38 -3 -16 -11 -28 -16 -28 -6 0
-10 -4 -10 -9 0 -18 -78 -126 -117 -162 -126 -119 -230 -157 -513 -184 -313
-30 -991 -8 -1044 33 -6 5 -35 12 -65 16 -96 12 -162 34 -241 81 -42 25 -81
55 -88 67 -6 13 -13 109 -17 213 -3 105 -10 273 -16 375 -17 314 -21 670 -9
685 13 16 30 11 86 -27z m328 -1634 c33 -8 65 -19 69 -23 9 -9 14 -123 27
-626 6 -249 13 -382 24 -430 8 -38 20 -103 26 -142 13 -83 97 -259 155 -328
42 -49 44 -65 8 -65 -26 1 -46 12 -140 84 -148 113 -246 296 -283 526 -22 134
-52 965 -37 1004 8 21 69 21 151 0z m-1180 -936 c33 -10 64 -22 70 -26 6 -5
34 -17 61 -27 28 -10 61 -27 75 -37 36 -28 180 -170 180 -179 0 -4 18 -38 40
-76 38 -66 80 -177 80 -212 0 -9 7 -34 15 -56 29 -80 18 -178 -33 -310 -39
-101 -109 -115 -161 -32 -24 39 -27 67 -17 163 8 78 -2 99 -46 92 -23 -3 -34
-21 -74 -112 -18 -44 -16 -168 5 -189 6 -6 11 -22 11 -35 0 -15 20 -44 55 -81
30 -32 55 -63 55 -70 0 -20 -39 -89 -71 -125 -56 -65 -148 -69 -212 -11 -30
28 -105 127 -129 170 -40 74 -61 235 -39 311 21 74 -45 112 -89 52 -24 -32
-25 -39 -25 -188 0 -158 2 -168 47 -266 26 -57 -26 -89 -95 -58 -57 25 -96 54
-113 84 -8 14 -23 39 -34 55 -62 97 -92 235 -72 334 16 78 15 95 -8 116 -31
28 -68 13 -90 -38 -17 -36 -20 -66 -20 -205 0 -142 -2 -163 -17 -169 -21 -8
-105 82 -132 141 -56 125 -83 265 -63 334 41 147 79 253 101 290 14 24 31 52
37 62 39 70 186 221 244 250 22 11 59 30 83 42 77 40 265 43 381 6z"/>
<path d="M5580 13473 c-38 -15 -103 -68 -125 -103 -21 -33 -25 -52 -25 -110 0
-65 3 -74 36 -119 51 -68 102 -95 184 -95 47 -1 75 5 100 19 44 25 80 56 80
68 0 6 8 19 17 29 24 27 24 140 0 190 -17 35 -78 93 -124 117 -22 11 -116 14
-143 4z"/>
<path d="M5055 10574 c-51 -33 -105 -105 -105 -139 0 -15 -5 -36 -12 -48 -6
-12 -15 -40 -19 -62 -4 -22 -12 -65 -18 -95 -19 -87 -15 -252 8 -355 27 -123
45 -186 62 -215 23 -40 102 -116 138 -133 46 -23 123 -22 170 2 67 35 162 158
167 216 1 16 7 44 14 60 18 42 19 357 2 455 -8 41 -23 95 -35 120 -26 55 -88
149 -114 172 -33 30 -91 48 -156 48 -51 0 -70 -5 -102 -26z"/>
<path d="M7355 10585 c-22 -8 -41 -15 -42 -15 -7 0 -82 -111 -95 -140 -43 -97
-53 -150 -65 -340 -7 -118 24 -306 64 -385 27 -53 98 -139 138 -167 66 -45
179 -35 236 21 46 47 89 122 107 191 42 154 50 262 32 410 -17 137 -47 242
-88 312 -43 74 -66 99 -105 116 -38 16 -133 14 -182 -3z"/>
<path d="M5885 9328 c-77 -42 -83 -88 -29 -202 31 -64 51 -90 126 -159 84 -79
145 -117 258 -164 35 -14 71 -18 175 -18 128 0 170 8 235 46 8 4 33 17 55 27
66 32 230 215 241 270 3 18 10 35 15 38 5 3 9 28 9 55 0 41 -5 54 -26 74 -53
49 -140 27 -160 -39 -40 -131 -124 -220 -245 -257 -205 -64 -435 39 -528 235
-21 44 -41 70 -64 85 -40 24 -36 24 -62 9z"/>
<path d="M3423 9338 c-80 -42 -140 -100 -164 -156 -25 -57 -26 -207 -3 -278
17 -50 78 -124 124 -149 117 -63 135 -69 206 -69 64 0 80 4 147 38 76 38 132
84 148 121 5 11 13 27 18 35 39 67 56 203 31 248 -5 9 -15 28 -20 42 -32 75
-77 121 -175 177 -22 13 -60 18 -140 21 -109 4 -111 4 -172 -30z"/>
</g>
</svg>
